HIERARCHY
ROOT Hips
{
  OFFSET 352.181 89.6817 215.948
  CHANNELS 6 Xposition Yposition Zposition Zrotation Xrotation Yrotation
  JOINT RightUpLeg
  {
    OFFSET -9.28908 -1.54242 -0.003762
    CHANNELS 3 Zrotation Xrotation Yrotation
    JOINT RightLeg
    {
      OFFSET 0.175992 -41.9066 0.16442
      CHANNELS 3 Zrotation Xrotation Yrotation
      JOINT RightFoot
      {
        OFFSET -0.850518 -41.676 1.19357
        CHANNELS 3 Zrotation Xrotation Yrotation
        End Site
        {
          OFFSET 0 -7.69 17.5
        }
      }
    }
  }
  JOINT LeftUpLeg
  {
    OFFSET 9.35911 -1.62184 0.0934226
    CHANNELS 3 Zrotation Xrotation Yrotation
    JOINT LeftLeg
    {
      OFFSET 0.11037 -41.8771 -4.76722e-05
      CHANNELS 3 Zrotation Xrotation Yrotation
      JOINT LeftFoot
      {
        OFFSET 0.784832 -42.2153 -2.4698
        CHANNELS 3 Zrotation Xrotation Yrotation
        End Site
        {
          OFFSET 0 -7.69 17.5
        }
      }
    }
  }
  JOINT Spine
  {
    OFFSET -0.0264112 14.3118 0.141242
    CHANNELS 3 Zrotation Xrotation Yrotation
    JOINT Spine1
    {
      OFFSET -0.0608006 9.71827 0.0702426
      CHANNELS 3 Zrotation Xrotation Yrotation
      JOINT Spine2
      {
        OFFSET 0.040197 10.1251 -0.0199022
        CHANNELS 3 Zrotation Xrotation Yrotation
        JOINT Spine3
        {
          OFFSET -0.018884 9.71791 0.0127475
          CHANNELS 3 Zrotation Xrotation Yrotation
          JOINT Neck
          {
            OFFSET -0.169577 10.3664 -0.0885607
            CHANNELS 3 Zrotation Xrotation Yrotation
            JOINT Head
            {
              OFFSET -0.26372 9.48406 0.127016
              CHANNELS 3 Zrotation Xrotation Yrotation
              End Site
              {
                OFFSET 0 15.95 0
              }
            }
          }
          JOINT RightShoulder
          {
            OFFSET -3.21308 6.8767 -0.0450237
            CHANNELS 3 Zrotation Xrotation Yrotation
            JOINT RightArm
            {
              OFFSET -12.7762 -0.0188046 -0.0629949
              CHANNELS 3 Zrotation Xrotation Yrotation
              JOINT RightForeArm
              {
                OFFSET -26.5383 -0.000218244 -0.103623
                CHANNELS 3 Zrotation Xrotation Yrotation
                JOINT RightHand
                {
                  OFFSET -25.8669 -0.047899 -0.0603739
                  CHANNELS 3 Zrotation Xrotation Yrotation
                  JOINT RightHandThumb1
                  {
                    OFFSET -2.48905 0.190105 3.12053
                    CHANNELS 3 Zrotation Xrotation Yrotation
                    JOINT RightHandThumb2
                    {
                      OFFSET -3.68274 0 0
                      CHANNELS 3 Zrotation Xrotation Yrotation
                      JOINT RightHandThumb3
                      {
                        OFFSET -2.55832 0 0
                        CHANNELS 3 Zrotation Xrotation Yrotation
                        End Site
                        {
                          OFFSET -2.194 0 0
                        }
                      }
                    }
                  }
                  JOINT RightInHandIndex
                  {
                    OFFSET -3.22368 0.508421 1.97842
                    CHANNELS 3 Zrotation Xrotation Yrotation
                    JOINT RightHandIndex1
                    {
                      OFFSET -5.21684 -0.091368 0.999158
                      CHANNELS 3 Zrotation Xrotation Yrotation
                      JOINT RightHandIndex2
                      {
                        OFFSET -3.61937 0 0
                        CHANNELS 3 Zrotation Xrotation Yrotation
                        JOINT RightHandIndex3
                        {
                          OFFSET -2.0521 0 0
                          CHANNELS 3 Zrotation Xrotation Yrotation
                          End Site
                          {
                            OFFSET -1.805 0 0
                          }
                        }
                      }
                    }
                  }
                  JOINT RightInHandMiddle
                  {
                    OFFSET -3.38211 0.517263 0.756737
                    CHANNELS 3 Zrotation Xrotation Yrotation
                    JOINT RightHandMiddle1
                    {
                      OFFSET -5.17411 -0.084 0.313895
                      CHANNELS 3 Zrotation Xrotation Yrotation
                      JOINT RightHandMiddle2
                      {
                        OFFSET -3.94947 0 0
                        CHANNELS 3 Zrotation Xrotation Yrotation
                        JOINT RightHandMiddle3
                        {
                          OFFSET -2.47579 0 0
                          CHANNELS 3 Zrotation Xrotation Yrotation
                          End Site
                          {
                            OFFSET -1.975 0 0
                          }
                        }
                      }
                    }
                  }
                  JOINT RightInHandRing
                  {
                    OFFSET -3.36516 0.537895 -0.128947
                    CHANNELS 3 Zrotation Xrotation Yrotation
                    JOINT RightHandRing1
                    {
                      OFFSET -4.63474 -0.022105 -0.478947
                      CHANNELS 3 Zrotation Xrotation Yrotation
                      JOINT RightHandRing2
                      {
                        OFFSET -3.44238 0 0
                        CHANNELS 3 Zrotation Xrotation Yrotation
                        JOINT RightHandRing3
                        {
                          OFFSET -2.3881 0 0
                          CHANNELS 3 Zrotation Xrotation Yrotation
                          End Site
                          {
                            OFFSET -1.857 0 0
                          }
                        }
                      }
                    }
                  }
                  JOINT RightInHandPinky
                  {
                    OFFSET -3.16105 0.469368 -1.20179
                    CHANNELS 3 Zrotation Xrotation Yrotation
                    JOINT RightHandPinky1
                    {
                      OFFSET -4.14105 -0.022105 -1.09053
                      CHANNELS 3 Zrotation Xrotation Yrotation
                      JOINT RightHandPinky2
                      {
                        OFFSET -2.75653 0 0
                        CHANNELS 3 Zrotation Xrotation Yrotation
                        JOINT RightHandPinky3
                        {
                          OFFSET -1.74189 0 0
                          CHANNELS 3 Zrotation Xrotation Yrotation
                          End Site
                          {
                            OFFSET -1.645 0 0
                          }
                        }
                      }
                    }
                  }
                }
              }
            }
          }
          JOINT LeftShoulder
          {
            OFFSET 3.21013 6.92813 0.031381
            CHANNELS 3 Zrotation Xrotation Yrotation
            JOINT LeftArm
            {
              OFFSET 12.8361 0.00272676 -0.00293476
              CHANNELS 3 Zrotation Xrotation Yrotation
              JOINT LeftForeArm
              {
                OFFSET 26.5005 -0.02636 0.00399578
                CHANNELS 3 Zrotation Xrotation Yrotation
                JOINT LeftHand
                {
                  OFFSET 25.9821 -0.0367196 0.00246136
                  CHANNELS 3 Zrotation Xrotation Yrotation
                  JOINT LeftHandThumb1
                  {
                    OFFSET 2.48905 0.190105 3.12053
                    CHANNELS 3 Zrotation Xrotation Yrotation
                    JOINT LeftHandThumb2
                    {
                      OFFSET 3.68274 0 0
                      CHANNELS 3 Zrotation Xrotation Yrotation
                      JOINT LeftHandThumb3
                      {
                        OFFSET 2.55832 0 0
                        CHANNELS 3 Zrotation Xrotation Yrotation
                        End Site
                        {
                          OFFSET 2.194 0 0
                        }
                      }
                    }
                  }
                  JOINT LeftInHandIndex
                  {
                    OFFSET 3.22368 0.508421 1.97842
                    CHANNELS 3 Zrotation Xrotation Yrotation
                    JOINT LeftHandIndex1
                    {
                      OFFSET 5.21684 -0.091368 0.999158
                      CHANNELS 3 Zrotation Xrotation Yrotation
                      JOINT LeftHandIndex2
                      {
                        OFFSET 3.61937 0 0
                        CHANNELS 3 Zrotation Xrotation Yrotation
                        JOINT LeftHandIndex3
                        {
                          OFFSET 2.0521 0 0
                          CHANNELS 3 Zrotation Xrotation Yrotation
                          End Site
                          {
                            OFFSET 1.805 0 0
                          }
                        }
                      }
                    }
                  }
                  JOINT LeftInHandMiddle
                  {
                    OFFSET 3.38211 0.517263 0.756737
                    CHANNELS 3 Zrotation Xrotation Yrotation
                    JOINT LeftHandMiddle1
                    {
                      OFFSET 5.17411 -0.084 0.313895
                      CHANNELS 3 Zrotation Xrotation Yrotation
                      JOINT LeftHandMiddle2
                      {
                        OFFSET 3.94947 0 0
                        CHANNELS 3 Zrotation Xrotation Yrotation
                        JOINT LeftHandMiddle3
                        {
                          OFFSET 2.47579 0 0
                          CHANNELS 3 Zrotation Xrotation Yrotation
                          End Site
                          {
                            OFFSET 1.975 0 0
                          }
                        }
                      }
                    }
                  }
                  JOINT LeftInHandRing
                  {
                    OFFSET 3.36516 0.537895 -0.128947
                    CHANNELS 3 Zrotation Xrotation Yrotation
                    JOINT LeftHandRing1
                    {
                      OFFSET 4.63474 -0.022105 -0.478947
                      CHANNELS 3 Zrotation Xrotation Yrotation
                      JOINT LeftHandRing2
                      {
                        OFFSET 3.44238 0 0
                        CHANNELS 3 Zrotation Xrotation Yrotation
                        JOINT LeftHandRing3
                        {
                          OFFSET 2.3881 0 0
                          CHANNELS 3 Zrotation Xrotation Yrotation
                          End Site
                          {
                            OFFSET 1.857 0 0
                          }
                        }
                      }
                    }
                  }
                  JOINT LeftInHandPinky
                  {
                    OFFSET 3.16105 0.469368 -1.20179
                    CHANNELS 3 Zrotation Xrotation Yrotation
                    JOINT LeftHandPinky1
                    {
                      OFFSET 4.14105 -0.022105 -1.09053
                      CHANNELS 3 Zrotation Xrotation Yrotation
                      JOINT LeftHandPinky2
                      {
                        OFFSET 2.75653 0 0
                        CHANNELS 3 Zrotation Xrotation Yrotation
                        JOINT LeftHandPinky3
                        {
                          OFFSET 1.74189 0 0
                          CHANNELS 3 Zrotation Xrotation Yrotation
                          End Site
                          {
                            OFFSET 1.645 0 0
                          }
                        }
                      }
                    }
                  }
                }
              }
            }
          }
        }
      }
    }
  }
}
MOTION
Frames: 3
Frame Time: 0.00833333
4.501577378623317145e+02 -1.824613156246088219e-03 1.818537088350979103e-01 2.337796760374038357e-02 6.781908588717221187e-02 -2.264796712748380625e-02 -2.575934100337264332e-01 -2.209677149526245166e-01 -2.902216078113993847e-01 2.493699948376292552e-01 7.870032393041542784e-02 -2.631016901030114319e-01 -7.129000155136736017e-02 1.207039546539582717e-03 2.765147973998354214e-01 -3.737143912981126526e-02 -2.442143859817562379e-01 -2.253484410258634052e-01 1.113199507348912876e-01 1.060522165051291932e-02 -3.374497554127769278e-02 9.518299351486940452e-02 9.501390398115219793e-02 2.949446185470657178e-01 1.368195761287106446e-02 1.574667535840953703e-01 -5.858540507290717347e-02 -1.907907114166737181e-03 5.321648012341916728e-02 -2.465736231335556236e-02 -2.426842966114124700e-04 9.497872595867175305e-02 -4.817102341305166263e-02 -6.354834562851191179e-03 -2.326798993430878246e-02 2.263566069059772326e-02 2.658590363977336030e-02 1.053298310380792052e-01 -8.264438335766967070e-01 -1.205703612540426628e-01 -6.389924589109270414e-01 1.013450989796419011e+00 2.442496968021129200e-01 -6.994660738198866801e-01 -9.634260263305020888e-02 -2.413906729527230677e-02 1.525858218568109104e-01 1.840451385409406893e+00 -4.679978384395260704e+00 5.313183384519807317e-01 -7.220185419010049621e+00 1.108315152503977608e+00 -5.878953383450286063e-01 1.475718940313586192e+00 0.000000000000000000e+00 0.000000000000000000e+00 0.000000000000000000e+00 -6.253887702449967012e-14 7.061641393189668203e-15 0.000000000000000000e+00 -1.350907343320244258e-14 -7.445669729501373844e-17 0.000000000000000000e+00 -2.002044749955860097e-15 -6.556878658147551666e-16 -4.036539485457831211e-15 0.000000000000000000e+00 0.000000000000000000e+00 0.000000000000000000e+00 0.000000000000000000e+00 -1.408048296076170185e-14 -5.803009420243363773e-14 0.000000000000000000e+00 3.410286550414801083e-15 -9.073731740675720609e-15 -2.002044749955860097e-15 -6.556878658147551666e-16 -4.036539485457831211e-15 0.000000000000000000e+00 -5.747701931586372797e-15 -1.678593384242228605e-14 0.000000000000000000e+00 2.717462935228384746e-15 -5.102631996595446216e-15 0.000000000000000000e+00 2.659202351264488290e-16 -2.242500197149017657e-17 -2.002044749955860097e-15 -6.556878658147551666e-16 -4.036539485457831211e-15 0.000000000000000000e+00 0.000000000000000000e+00 0.000000000000000000e+00 0.000000000000000000e+00 1.350714077234512045e-14 3.262927746203215897e-14 0.000000000000000000e+00 1.446509580590898221e-15 -3.413769186071677599e-16 -2.002044749955860097e-15 -6.556878658147551666e-16 -4.036539485457831211e-15 0.000000000000000000e+00 0.000000000000000000e+00 0.000000000000000000e+00 0.000000000000000000e+00 9.621726414531244760e-15 2.522654385036402381e-14 0.000000000000000000e+00 1.848455269641537787e-15 -1.647999299428711749e-15 -6.409751947176868525e-02 -6.307751383869155681e-01 -5.566152359014867601e-01 -1.465926367018717702e+00 -1.157372525419072540e-01 9.003888978376919372e-01 1.659320794876274485e+00 -2.671617524087083417e+00 1.675451634319215843e+00 7.387087126314489938e-01 2.600978655041220389e+00 9.738973578462367664e-01 0.000000000000000000e+00 0.000000000000000000e+00 0.000000000000000000e+00 -7.576481842141839466e-15 4.900586053151388622e-16 0.000000000000000000e+00 9.457023383024091349e-16 -4.621092455766380606e-15 0.000000000000000000e+00 9.472417830503500529e-16 -2.890684712236831078e-15 -3.488016077210023944e-15 0.000000000000000000e+00 0.000000000000000000e+00 0.000000000000000000e+00 0.000000000000000000e+00 -9.978775693707873838e-16 -1.219873994531194667e-15 0.000000000000000000e+00 4.951899258263684801e-15 -4.283054558718119190e-15 9.472417830503500529e-16 -2.890684712236831078e-15 -3.488016077210023944e-15 0.000000000000000000e+00 -2.309757176824430566e-16 9.836942442619167311e-16 0.000000000000000000e+00 7.234268625962565869e-16 -1.190630612622538567e-15 0.000000000000000000e+00 2.372819914091151364e-17 -9.602728906474388865e-15 9.472417830503500529e-16 -2.890684712236831078e-15 -3.488016077210023944e-15 0.000000000000000000e+00 0.000000000000000000e+00 0.000000000000000000e+00 0.000000000000000000e+00 2.325286254419222012e-16 -4.087896470436357491e-15 0.000000000000000000e+00 -6.907113261649858348e-16 -4.126697239194238033e-15 9.472417830503500529e-16 -2.890684712236831078e-15 -3.488016077210023944e-15 0.000000000000000000e+00 0.000000000000000000e+00 0.000000000000000000e+00 0.000000000000000000e+00 1.251913038928862682e-15 -2.894078538142758393e-16 0.000000000000000000e+00 2.094155473590452803e-15 -4.653665421909966142e-15
4.501275357553078038e+02 4.947396867046301248e-04 1.290701828235366055e-01 2.115186726458210750e-02 4.923150516051973818e-02 -3.625048623479371068e-02 -2.070751099438570830e-01 -1.618989290874919829e-01 -2.167217296891578993e-01 2.284191764100407807e-01 5.982733481362567662e-02 -2.195500077949189832e-01 -7.119187616934238849e-02 -7.293619061436822960e-03 2.193923743328697884e-01 -2.745251923706392219e-02 -1.761501943280475990e-01 -1.887859548463837189e-01 8.838398895622648355e-02 -1.611205500820614422e-02 -3.138835392409815295e-02 7.061362793656866810e-02 8.644866459409866755e-02 2.621931778697644821e-01 -3.208733541691433100e-02 1.292917025658776031e-01 -2.065801357410339961e-03 -1.073440699152398807e-02 4.355822607830704685e-02 -9.738229513674149379e-03 -1.553907384997454434e-02 7.637388473778843057e-02 -2.174179509481906358e-02 -2.435942592594115674e-03 -1.786846038355102348e-02 1.390956284259161312e-02 2.151276989831703637e-02 7.455692013814206598e-02 -5.972584002445977536e-01 -5.173590273146577712e-02 -4.799399454760864270e-01 6.857653350409127491e-01 2.113316609314765393e-01 -6.071671075190038236e-01 -5.433985103203278766e-02 -1.631191936350158689e-01 2.470547272533741290e-01 1.480396172772421304e+00 -4.387463434609925272e+00 3.289030021924791991e-01 -6.379212305327989441e+00 1.085680389914946309e+00 -3.963101375131013460e-01 1.440915014343819855e+00 0.000000000000000000e+00 0.000000000000000000e+00 0.000000000000000000e+00 -4.158331183772271762e-14 5.388836593712429158e-15 0.000000000000000000e+00 -1.237491949281994702e-14 5.810036756568433595e-16 0.000000000000000000e+00 -1.801757930823425923e-15 -1.379310413521054863e-16 -3.186561168208024791e-15 0.000000000000000000e+00 0.000000000000000000e+00 0.000000000000000000e+00 0.000000000000000000e+00 -1.276526615692888635e-14 -5.309093398439070822e-14 0.000000000000000000e+00 2.551193165558436379e-15 -7.653428824815131646e-15 -1.801757930823425923e-15 -1.379310413521054863e-16 -3.186561168208024791e-15 0.000000000000000000e+00 -5.364289324070397993e-15 -1.709174641455801539e-14 0.000000000000000000e+00 3.246266929715243255e-15 -2.152237405434376117e-15 0.000000000000000000e+00 -5.252849494427459194e-16 6.756569855891388452e-16 -1.801757930823425923e-15 -1.379310413521054863e-16 -3.186561168208024791e-15 0.000000000000000000e+00 0.000000000000000000e+00 0.000000000000000000e+00 0.000000000000000000e+00 1.352136935466467650e-14 3.425733082427372171e-14 0.000000000000000000e+00 1.588196931673229409e-15 8.913506358030896509e-16 -1.801757930823425923e-15 -1.379310413521054863e-16 -3.186561168208024791e-15 0.000000000000000000e+00 0.000000000000000000e+00 0.000000000000000000e+00 0.000000000000000000e+00 8.839427249089838169e-15 2.844615861593484375e-14 0.000000000000000000e+00 3.576569751232927769e-15 -6.601689857618615709e-16 -1.664193012657340723e-02 -5.317960123689323693e-01 -4.993684453265893608e-01 -1.459960995173109177e+00 -1.453639436733481505e-01 1.044496317910032168e+00 1.281037957485072987e+00 -2.063760943932540393e+00 1.177963512110849154e+00 5.043394215768964850e-01 1.955129285977406539e+00 6.589049856865667465e-01 0.000000000000000000e+00 0.000000000000000000e+00 0.000000000000000000e+00 -6.555878098644487578e-15 -8.492310666966662595e-16 0.000000000000000000e+00 1.125922236361183785e-15 -4.487897957714519076e-15 0.000000000000000000e+00 -1.997473687963495935e-16 -1.942778742200524948e-15 -2.821509865459594302e-15 0.000000000000000000e+00 0.000000000000000000e+00 0.000000000000000000e+00 0.000000000000000000e+00 -1.575344795784622947e-15 -1.324605710743571439e-15 0.000000000000000000e+00 4.054559504918958198e-15 -4.994241231932485428e-15 -1.997473687963495935e-16 -1.942778742200524948e-15 -2.821509865459594302e-15 0.000000000000000000e+00 8.283368475596985692e-16 1.039265726551204256e-15 0.000000000000000000e+00 -4.427546338161498325e-16 -2.577037439733934207e-16 0.000000000000000000e+00 5.661325553775355415e-16 -7.479728471934720851e-15 -1.997473687963495935e-16 -1.942778742200524948e-15 -2.821509865459594302e-15 0.000000000000000000e+00 0.000000000000000000e+00 0.000000000000000000e+00 0.000000000000000000e+00 5.913238479868606042e-16 -2.812462441582755043e-15 0.000000000000000000e+00 -2.121638013425369203e-16 -2.501940658537939461e-15 -1.997473687963495935e-16 -1.942778742200524948e-15 -2.821509865459594302e-15 0.000000000000000000e+00 0.000000000000000000e+00 0.000000000000000000e+00 0.000000000000000000e+00 6.663121067770690217e-16 -1.123036871477918456e-16 0.000000000000000000e+00 9.316242663777841870e-16 -4.820386965996123828e-15
4.500986199349953267e+02 2.334611695107291929e-03 8.265133654553587228e-02 1.930372039568518938e-02 3.296290320057722323e-02 -4.349927891875680214e-02 -1.617673296313056064e-01 -1.092163929756607421e-01 -1.591431602877727280e-01 2.017148387444558655e-01 4.224148285709746625e-02 -1.637204448346915864e-01 -6.832420808735756301e-02 -1.557788084641256385e-02 1.585466249802955085e-01 -1.976585803520372261e-02 -1.168480662372551049e-01 -1.541424953744628679e-01 6.561039272822954960e-02 -3.438650729911673504e-02 -2.640550888880626237e-02 4.902649202290973451e-02 7.440169455285661204e-02 2.238343155248707639e-01 -6.601297080670863460e-02 1.011077854611215493e-01 4.434713236773148853e-02 -1.705114857058417921e-02 3.409958301615568371e-02 2.898742955204558838e-03 -2.661936400759666935e-02 5.854370429270695786e-02 7.289549181289170510e-04 9.849705199002352189e-04 -1.288607548306323208e-02 5.875187842209579452e-03 1.701405433124531311e-02 4.791335640852829869e-02 -3.974355916511786435e-01 8.298221981557826060e-03 -3.349243734739651979e-01 3.918201752101311830e-01 1.770821340831579271e-01 -5.035678357093308355e-01 -2.292271261897968482e-02 -2.712383703781052757e-01 3.225166071303146031e-01 1.150130230029231981e+00 -3.908985653868485954e+00 1.296739058674859224e-01 -5.389349220389454409e+00 1.046016615517439519e+00 -2.295580312342384022e-01 1.389347781989853647e+00 0.000000000000000000e+00 0.000000000000000000e+00 0.000000000000000000e+00 -2.108495227606004207e-14 3.630643592203316423e-15 0.000000000000000000e+00 -1.056031016101984627e-14 1.050596744435908983e-15 0.000000000000000000e+00 -1.569877342226038732e-15 2.893206243394310227e-16 -2.308825351753551942e-15 0.000000000000000000e+00 0.000000000000000000e+00 0.000000000000000000e+00 0.000000000000000000e+00 -1.110310380941535725e-14 -4.674772171991782235e-14 0.000000000000000000e+00 1.684494572651986330e-15 -6.119922121319607972e-15 -1.569877342226038732e-15 2.893206243394310227e-16 -2.308825351753551942e-15 0.000000000000000000e+00 -4.847968393607441258e-15 -1.678499084326706080e-14 0.000000000000000000e+00 3.677568654240445835e-15 6.105424169854345271e-16 0.000000000000000000e+00 -1.293364617273152924e-15 1.345394428329709847e-15 -1.569877342226038732e-15 2.893206243394310227e-16 -2.308825351753551942e-15 0.000000000000000000e+00 0.000000000000000000e+00 0.000000000000000000e+00 0.000000000000000000e+00 1.291356671960892725e-14 3.438162111078157908e-14 0.000000000000000000e+00 1.580895268618268882e-15 1.960273603503806513e-15 -1.569877342226038732e-15 2.893206243394310227e-16 -2.308825351753551942e-15 0.000000000000000000e+00 0.000000000000000000e+00 0.000000000000000000e+00 0.000000000000000000e+00 7.909895555421083121e-15 3.007872225885820527e-14 0.000000000000000000e+00 4.891671503069661104e-15 2.938160773959865459e-16 2.099388936316672061e-02 -4.291839265541367299e-01 -4.283613748718452796e-01 -1.378075325310056831e+00 -1.651674423312247675e-01 1.105731063540348114e+00 8.846987814701021691e-01 -1.383971485585562711e+00 6.837137333222481628e-01 2.842046533661014562e-01 1.291627109963854991e+00 3.636045422391118720e-01 0.000000000000000000e+00 0.000000000000000000e+00 0.000000000000000000e+00 -5.334405549232016152e-15 -1.996615201739506302e-15 0.000000000000000000e+00 1.093411641962916134e-15 -4.312781654287120934e-15 0.000000000000000000e+00 -1.160560162767547736e-15 -9.811613337266011124e-16 -2.087659614341780926e-15 0.000000000000000000e+00 0.000000000000000000e+00 0.000000000000000000e+00 0.000000000000000000e+00 -2.041598581592240541e-15 -1.288943559638691200e-15 0.000000000000000000e+00 3.102193063417211599e-15 -5.360885823899381452e-15 -1.160560162767547736e-15 -9.811613337266011124e-16 -2.087659614341780926e-15 0.000000000000000000e+00 1.610175381068828340e-15 1.193825841096378681e-15 0.000000000000000000e+00 -1.495509789995664180e-15 7.047979576148282768e-16 0.000000000000000000e+00 1.031244820781403497e-15 -5.373141489816903123e-15 -1.160560162767547736e-15 -9.811613337266011124e-16 -2.087659614341780926e-15 0.000000000000000000e+00 0.000000000000000000e+00 0.000000000000000000e+00 0.000000000000000000e+00 8.368345468866161758e-16 -1.471552952425036008e-15 0.000000000000000000e+00 1.493993387289395020e-16 -8.154223813519700444e-16 -1.160560162767547736e-15 -9.811613337266011124e-16 -2.087659614341780926e-15 0.000000000000000000e+00 0.000000000000000000e+00 0.000000000000000000e+00 0.000000000000000000e+00 1.566329106676872965e-16 8.230618570539473456e-17 0.000000000000000000e+00 -1.649008351466556270e-16 -4.792905594132962210e-15
